name C:\Users\u0101727\Documents\MyRepositories\upper-imu-dc\Results\main_tracking\Case_21\kinematics.mot
datacolumns 10
datarows 18
range 0.70000000 0.87000000
endheader 
time	clav_prot	clav_elev	scapula_abduction	scapula_elevation	scapula_upward_rot	scapula_winging	plane_elv	shoulder_elv	axial_rot	
          0.70000000	        -24.59554138	         -1.52802606	        -13.81116943	         -3.28015717	         17.83207615	          3.33088672	        -12.24939383	         10.03006041	         24.98596317	
          0.71000000	        -24.37408268	         -1.52520146	        -13.37479790	         -3.29111332	         17.94800129	          3.30641045	        -10.69851436	         10.21760819	         22.59221461	
          0.72000000	        -24.19426021	         -1.49345875	        -13.01091619	         -3.28016898	         18.04691473	          3.27592171	         -9.07153507	         10.43369471	         20.24184938	
          0.73000000	        -24.06793406	         -1.45652657	        -12.74494040	         -3.26704953	         18.13915408	          3.24396159	         -7.37153281	         10.66327400	         18.02064034	
          0.74000000	        -23.97312833	         -1.41820416	        -12.52902503	         -3.25664784	         18.23873060	          3.20881964	         -5.64439653	         10.89267157	         15.99336206	
          0.75000000	        -23.88522223	         -1.38028541	        -12.31332467	         -3.25134620	         18.35622927	          3.16875174	         -3.92461922	         11.11205868	         14.18326300	
          0.76000000	        -23.79601699	         -1.34247417	        -12.08296704	         -3.25065402	         18.49275711	          3.12351075	         -2.21639785	         11.32031375	         12.58280063	
          0.77000000	        -23.70405071	         -1.30456946	        -11.83678543	         -3.25376960	         18.64614116	          3.07361459	         -0.50654364	         11.51944241	         11.16247928	
          0.78000000	        -23.61388438	         -1.26551246	        -11.58576607	         -3.25907189	         18.81195341	          3.01991274	          1.22658465	         11.71379397	          9.88792404	
          0.79000000	        -23.52886921	         -1.22414375	        -11.33806186	         -3.26509981	         18.98701680	          2.96295107	          3.00337818	         11.90704250	          8.72422044	
          0.80000000	        -23.45211400	         -1.17878446	        -11.10106626	         -3.27019009	         19.16896747	          2.90295689	          4.84021330	         12.10277210	          7.64053095	
          0.81000000	        -23.38486164	         -1.12796430	        -10.87798959	         -3.27306531	         19.35683906	          2.83986511	          6.74680669	         12.30407414	          6.60945363	
          0.82000000	        -23.32744563	         -1.07077866	        -10.66993054	         -3.27295959	         19.55023889	          2.77361113	          8.72568005	         12.51434240	          5.60858834	
          0.83000000	        -23.27888384	         -1.00745930	        -10.47510882	         -3.26997659	         19.74916658	          2.70431625	         10.77146956	         12.73733835	          4.62019055	
          0.84000000	        -23.23737897	         -0.93938031	        -10.29021505	         -3.26494244	         19.95326233	          2.63247841	         12.87189617	         12.97764059	          3.63177016	
          0.85000000	        -23.20089945	         -0.86882424	        -10.11166753	         -3.25920078	         20.16153647	          2.55897976	         15.00953122	         13.24052717	          2.63577623	
          0.86000000	        -23.16760599	         -0.79846281	         -9.93664513	         -3.25420306	         20.37217015	          2.48500422	         17.16454408	         13.53176664	          1.62972311	
          0.87000000	        -23.13631463	         -0.73077635	         -9.76390896	         -3.25116443	         20.58277041	          2.41182489	         19.31740182	         13.85706867	          0.61524984	
